  0
SECTION
  2
ENTITIES
  0
LINE
  8
0
 10
40
 20
-913
 30
144
 11
74
 21
-887
 31
145
  0
LINE
  8
0
 10
-26
 20
-963
 30
144
 11
40
 21
-913
 31
144
  0
LINE
  8
0
 10
-111
 20
-1026
 30
145
 11
-26
 21
-963
 31
144
  0
LINE
  8
0
 10
-218
 20
-1107
 30
145
 11
-111
 21
-1026
 31
145
  0
LINE
  8
0
 10
-321
 20
-1184
 30
145
 11
-218
 21
-1107
 31
145
  0
LINE
  8
0
 10
-428
 20
-1265
 30
145
 11
-321
 21
-1184
 31
145
  0
LINE
  8
0
 10
-539
 20
-1347
 30
145
 11
-428
 21
-1265
 31
145
  0
LINE
  8
0
 10
-648
 20
-1429
 30
144
 11
-539
 21
-1347
 31
145
  0
LINE
  8
0
 10
-764
 20
-1516
 30
144
 11
-648
 21
-1429
 31
144
  0
LINE
  8
0
 10
-855
 20
-1584
 30
145
 11
-764
 21
-1516
 31
144
  0
LINE
  8
0
 10
-930
 20
-1640
 30
144
 11
-855
 21
-1584
 31
145
  0
LINE
  8
0
 10
-968
 20
-1669
 30
145
 11
-930
 21
-1640
 31
144
  0
LINE
  8
0
 10
-877
 20
-1584
 30
-26
 11
-881
 21
-1597
 31
91
  0
LINE
  8
0
 10
-901
 20
-1610
 30
91
 11
-881
 21
-1597
 31
91
  0
LINE
  8
0
 10
-877
 20
-1584
 30
-26
 11
-799
 21
-1699
 31
-26
  0
LINE
  8
0
 10
-901
 20
-1610
 30
91
 11
-907
 21
-1624
 31
-26
  0
LINE
  8
0
 10
-911
 20
-1609
 30
-26
 11
-901
 21
-1610
 31
91
  0
LINE
  8
0
 10
-908
 20
-1593
 30
-26
 11
-911
 21
-1609
 31
-26
  0
LINE
  8
0
 10
-901
 20
-1610
 30
91
 11
-908
 21
-1593
 31
-26
  0
LINE
  8
0
 10
-804
 20
-1713
 30
91
 11
-799
 21
-1699
 31
-26
  0
LINE
  8
0
 10
-881
 20
-1597
 30
91
 11
-804
 21
-1713
 31
91
  0
LINE
  8
0
 10
-894
 20
-1585
 30
-26
 11
-881
 21
-1597
 31
91
  0
LINE
  8
0
 10
-877
 20
-1584
 30
-26
 11
-894
 21
-1585
 31
-26
  0
LINE
  8
0
 10
-825
 20
-1726
 30
91
 11
-841
 21
-1726
 31
-26
  0
LINE
  8
0
 10
-828
 20
-1736
 30
-26
 11
-825
 21
-1726
 31
91
  0
LINE
  8
0
 10
-812
 20
-1736
 30
-26
 11
-828
 21
-1736
 31
-26
  0
LINE
  8
0
 10
-825
 20
-1726
 30
91
 11
-812
 21
-1736
 31
-26
  0
LINE
  8
0
 10
-804
 20
-1713
 30
91
 11
-825
 21
-1726
 31
91
  0
LINE
  8
0
 10
-801
 20
-1730
 30
-26
 11
-804
 21
-1713
 31
91
  0
LINE
  8
0
 10
-797
 20
-1717
 30
-26
 11
-801
 21
-1730
 31
-26
  0
LINE
  8
0
 10
-804
 20
-1713
 30
91
 11
-797
 21
-1717
 31
-26
  0
LINE
  8
0
 10
-825
 20
-1726
 30
91
 11
-804
 21
-1713
 31
91
  0
LINE
  8
0
 10
-901
 20
-1610
 30
91
 11
-825
 21
-1726
 31
91
  0
LINE
  8
0
 10
-797
 20
-1717
 30
-26
 11
-799
 21
-1699
 31
-26
  0
LINE
  8
0
 10
-801
 20
-1730
 30
-26
 11
-797
 21
-1717
 31
-26
  0
LINE
  8
0
 10
-812
 20
-1736
 30
-26
 11
-801
 21
-1730
 31
-26
  0
LINE
  8
0
 10
-828
 20
-1736
 30
-26
 11
-812
 21
-1736
 31
-26
  0
LINE
  8
0
 10
-841
 20
-1726
 30
-26
 11
-828
 21
-1736
 31
-26
  0
LINE
  8
0
 10
-907
 20
-1624
 30
-26
 11
-841
 21
-1726
 31
-26
  0
LINE
  8
0
 10
-911
 20
-1609
 30
-26
 11
-907
 21
-1624
 31
-26
  0
LINE
  8
0
 10
-908
 20
-1593
 30
-26
 11
-911
 21
-1609
 31
-26
  0
LINE
  8
0
 10
-894
 20
-1585
 30
-26
 11
-908
 21
-1593
 31
-26
  0
LINE
  8
0
 10
-877
 20
-1584
 30
-26
 11
-894
 21
-1585
 31
-26
  0
LINE
  8
0
 10
13
 20
-911
 30
-11
 11
8
 21
-924
 31
91
  0
LINE
  8
0
 10
-10
 20
-938
 30
91
 11
8
 21
-924
 31
91
  0
LINE
  8
0
 10
13
 20
-911
 30
-11
 11
91
 21
-1027
 31
-11
  0
LINE
  8
0
 10
-10
 20
-938
 30
91
 11
-17
 21
-952
 31
-11
  0
LINE
  8
0
 10
-21
 20
-936
 30
-11
 11
-10
 21
-938
 31
91
  0
LINE
  8
0
 10
-18
 20
-921
 30
-11
 11
-21
 21
-936
 31
-11
  0
LINE
  8
0
 10
-10
 20
-938
 30
91
 11
-18
 21
-921
 31
-11
  0
LINE
  8
0
 10
86
 20
-1040
 30
91
 11
91
 21
-1027
 31
-11
  0
LINE
  8
0
 10
8
 20
-924
 30
91
 11
86
 21
-1040
 31
91
  0
LINE
  8
0
 10
-4
 20
-912
 30
-11
 11
8
 21
-924
 31
91
  0
LINE
  8
0
 10
13
 20
-911
 30
-11
 11
-4
 21
-912
 31
-11
  0
LINE
  8
0
 10
64
 20
-1054
 30
91
 11
49
 21
-1053
 31
-11
  0
LINE
  8
0
 10
62
 20
-1063
 30
-11
 11
64
 21
-1054
 31
91
  0
LINE
  8
0
 10
77
 20
-1063
 30
-11
 11
62
 21
-1063
 31
-11
  0
LINE
  8
0
 10
64
 20
-1054
 30
91
 11
77
 21
-1063
 31
-11
  0
LINE
  8
0
 10
86
 20
-1040
 30
91
 11
64
 21
-1054
 31
91
  0
LINE
  8
0
 10
88
 20
-1057
 30
-11
 11
86
 21
-1040
 31
91
  0
LINE
  8
0
 10
93
 20
-1044
 30
-11
 11
88
 21
-1057
 31
-11
  0
LINE
  8
0
 10
86
 20
-1040
 30
91
 11
93
 21
-1044
 31
-11
  0
LINE
  8
0
 10
64
 20
-1054
 30
91
 11
86
 21
-1040
 31
91
  0
LINE
  8
0
 10
-10
 20
-938
 30
91
 11
64
 21
-1054
 31
91
  0
LINE
  8
0
 10
93
 20
-1044
 30
-11
 11
91
 21
-1027
 31
-11
  0
LINE
  8
0
 10
88
 20
-1057
 30
-11
 11
93
 21
-1044
 31
-11
  0
LINE
  8
0
 10
77
 20
-1063
 30
-11
 11
88
 21
-1057
 31
-11
  0
LINE
  8
0
 10
62
 20
-1063
 30
-11
 11
77
 21
-1063
 31
-11
  0
LINE
  8
0
 10
49
 20
-1053
 30
-11
 11
62
 21
-1063
 31
-11
  0
LINE
  8
0
 10
-17
 20
-952
 30
-11
 11
49
 21
-1053
 31
-11
  0
LINE
  8
0
 10
-21
 20
-936
 30
-11
 11
-17
 21
-952
 31
-11
  0
LINE
  8
0
 10
-18
 20
-921
 30
-11
 11
-21
 21
-936
 31
-11
  0
LINE
  8
0
 10
-4
 20
-912
 30
-11
 11
-18
 21
-921
 31
-11
  0
LINE
  8
0
 10
13
 20
-911
 30
-11
 11
-4
 21
-912
 31
-11
  0
LINE
  8
0
 10
114
 20
-1027
 30
143
 11
148
 21
-1001
 31
144
  0
LINE
  8
0
 10
46
 20
-1077
 30
144
 11
114
 21
-1027
 31
143
  0
LINE
  8
0
 10
-37
 20
-1141
 30
144
 11
46
 21
-1077
 31
144
  0
LINE
  8
0
 10
-144
 20
-1221
 30
145
 11
-37
 21
-1141
 31
144
  0
LINE
  8
0
 10
-247
 20
-1298
 30
144
 11
-144
 21
-1221
 31
145
  0
LINE
  8
0
 10
-355
 20
-1379
 30
145
 11
-247
 21
-1298
 31
144
  0
LINE
  8
0
 10
-465
 20
-1461
 30
144
 11
-355
 21
-1379
 31
145
  0
LINE
  8
0
 10
-575
 20
-1544
 30
144
 11
-465
 21
-1461
 31
144
  0
LINE
  8
0
 10
-690
 20
-1630
 30
144
 11
-575
 21
-1544
 31
144
  0
LINE
  8
0
 10
-781
 20
-1698
 30
145
 11
-690
 21
-1630
 31
144
  0
LINE
  8
0
 10
-856
 20
-1755
 30
144
 11
-781
 21
-1698
 31
145
  0
LINE
  8
0
 10
-895
 20
-1784
 30
145
 11
-856
 21
-1755
 31
144
  0
LINE
  8
0
 10
14
 20
-1102
 30
252
 11
7
 21
-937
 31
205
  0
LINE
  8
0
 10
-164
 20
-1066
 30
313
 11
14
 21
-1102
 31
252
  0
LINE
  8
0
 10
-196
 20
-1260
 30
354
 11
-164
 21
-1066
 31
313
  0
LINE
  8
0
 10
-370
 20
-1221
 30
372
 11
-196
 21
-1260
 31
354
  0
LINE
  8
0
 10
-411
 20
-1421
 30
372
 11
-370
 21
-1221
 31
372
  0
LINE
  8
0
 10
-590
 20
-1386
 30
355
 11
-411
 21
-1421
 31
372
  0
LINE
  8
0
 10
-632
 20
-1586
 30
312
 11
-590
 21
-1386
 31
355
  0
LINE
  8
0
 10
-815
 20
-1554
 30
253
 11
-632
 21
-1586
 31
312
  0
LINE
  8
0
 10
-818
 20
-1726
 30
204
 11
-815
 21
-1554
 31
253
  0
LINE
  8
0
 10
-892
 20
-1612
 30
205
 11
-818
 21
-1726
 31
204
  0
LINE
  8
0
 10
-741
 20
-1669
 30
252
 11
-892
 21
-1612
 31
205
  0
LINE
  8
0
 10
-705
 20
-1472
 30
312
 11
-741
 21
-1669
 31
252
  0
LINE
  8
0
 10
-516
 20
-1500
 30
354
 11
-705
 21
-1472
 31
312
  0
LINE
  8
0
 10
-485
 20
-1307
 30
372
 11
-516
 21
-1500
 31
354
  0
LINE
  8
0
 10
-296
 20
-1335
 30
372
 11
-485
 21
-1307
 31
372
  0
LINE
  8
0
 10
-270
 20
-1145
 30
354
 11
-296
 21
-1335
 31
372
  0
LINE
  8
0
 10
-90
 20
-1181
 30
312
 11
-270
 21
-1145
 31
354
  0
LINE
  8
0
 10
-59
 20
-987
 30
253
 11
-90
 21
-1181
 31
312
  0
LINE
  8
0
 10
81
 20
-1051
 30
205
 11
-59
 21
-987
 31
253
  0
LINE
  8
0
 10
7
 20
-937
 30
205
 11
81
 21
-1051
 31
205
  0
LINE
  8
0
 10
40
 20
-913
 30
144
 11
39
 21
-913
 31
93
  0
LINE
  8
0
 10
-26
 20
-963
 30
144
 11
-26
 21
-963
 31
95
  0
LINE
  8
0
 10
-111
 20
-1026
 30
145
 11
-111
 21
-1027
 31
93
  0
LINE
  8
0
 10
-218
 20
-1107
 30
145
 11
-218
 21
-1107
 31
93
  0
LINE
  8
0
 10
-321
 20
-1184
 30
145
 11
-321
 21
-1184
 31
93
  0
LINE
  8
0
 10
-428
 20
-1265
 30
145
 11
-429
 21
-1265
 31
93
  0
LINE
  8
0
 10
-539
 20
-1347
 30
145
 11
-539
 21
-1348
 31
93
  0
LINE
  8
0
 10
-648
 20
-1429
 30
144
 11
-649
 21
-1430
 31
93
  0
LINE
  8
0
 10
-764
 20
-1516
 30
144
 11
-764
 21
-1516
 31
94
  0
LINE
  8
0
 10
-855
 20
-1584
 30
145
 11
-855
 21
-1584
 31
93
  0
LINE
  8
0
 10
-930
 20
-1640
 30
144
 11
-930
 21
-1640
 31
95
  0
LINE
  8
0
 10
-892
 20
-1612
 30
205
 11
-892
 21
-1612
 31
94
  0
LINE
  8
0
 10
-815
 20
-1554
 30
253
 11
-815
 21
-1554
 31
93
  0
LINE
  8
0
 10
-705
 20
-1472
 30
312
 11
-706
 21
-1472
 31
94
  0
LINE
  8
0
 10
-590
 20
-1386
 30
355
 11
-591
 21
-1386
 31
93
  0
LINE
  8
0
 10
-485
 20
-1307
 30
372
 11
-485
 21
-1307
 31
94
  0
LINE
  8
0
 10
-370
 20
-1221
 30
372
 11
-370
 21
-1221
 31
93
  0
LINE
  8
0
 10
-270
 20
-1145
 30
354
 11
-270
 21
-1146
 31
94
  0
LINE
  8
0
 10
-164
 20
-1066
 30
313
 11
-164
 21
-1066
 31
93
  0
LINE
  8
0
 10
-59
 20
-987
 30
253
 11
-59
 21
-987
 31
94
  0
LINE
  8
0
 10
7
 20
-937
 30
205
 11
7
 21
-937
 31
93
  0
LINE
  8
0
 10
-930
 20
-1640
 30
144
 11
-969
 21
-1670
 31
93
  0
LINE
  8
0
 10
-892
 20
-1612
 30
94
 11
-930
 21
-1640
 31
144
  0
LINE
  8
0
 10
-855
 20
-1584
 30
145
 11
-892
 21
-1612
 31
94
  0
LINE
  8
0
 10
-815
 20
-1554
 30
93
 11
-855
 21
-1584
 31
145
  0
LINE
  8
0
 10
-764
 20
-1516
 30
144
 11
-815
 21
-1554
 31
93
  0
LINE
  8
0
 10
-706
 20
-1472
 30
94
 11
-764
 21
-1516
 31
144
  0
LINE
  8
0
 10
-648
 20
-1429
 30
144
 11
-706
 21
-1472
 31
94
  0
LINE
  8
0
 10
-591
 20
-1386
 30
93
 11
-648
 21
-1429
 31
144
  0
LINE
  8
0
 10
-539
 20
-1347
 30
145
 11
-591
 21
-1386
 31
93
  0
LINE
  8
0
 10
-485
 20
-1307
 30
94
 11
-539
 21
-1347
 31
145
  0
LINE
  8
0
 10
-428
 20
-1265
 30
145
 11
-485
 21
-1307
 31
94
  0
LINE
  8
0
 10
-370
 20
-1221
 30
93
 11
-428
 21
-1265
 31
145
  0
LINE
  8
0
 10
-321
 20
-1184
 30
145
 11
-370
 21
-1221
 31
93
  0
LINE
  8
0
 10
-270
 20
-1146
 30
94
 11
-321
 21
-1184
 31
145
  0
LINE
  8
0
 10
-218
 20
-1107
 30
145
 11
-270
 21
-1146
 31
94
  0
LINE
  8
0
 10
-164
 20
-1066
 30
93
 11
-218
 21
-1107
 31
145
  0
LINE
  8
0
 10
-111
 20
-1026
 30
145
 11
-164
 21
-1066
 31
93
  0
LINE
  8
0
 10
-59
 20
-987
 30
94
 11
-111
 21
-1026
 31
145
  0
LINE
  8
0
 10
-26
 20
-963
 30
144
 11
-59
 21
-987
 31
94
  0
LINE
  8
0
 10
7
 20
-937
 30
93
 11
-26
 21
-963
 31
144
  0
LINE
  8
0
 10
40
 20
-913
 30
144
 11
7
 21
-937
 31
93
  0
LINE
  8
0
 10
75
 20
-887
 30
94
 11
40
 21
-913
 31
144
  0
LINE
  8
0
 10
74
 20
-887
 30
145
 11
75
 21
-887
 31
94
  0
LINE
  8
0
 10
39
 20
-913
 30
93
 11
75
 21
-887
 31
94
  0
LINE
  8
0
 10
7
 20
-937
 30
93
 11
39
 21
-913
 31
93
  0
LINE
  8
0
 10
-26
 20
-963
 30
95
 11
7
 21
-937
 31
93
  0
LINE
  8
0
 10
-59
 20
-987
 30
94
 11
-26
 21
-963
 31
95
  0
LINE
  8
0
 10
-111
 20
-1027
 30
93
 11
-59
 21
-987
 31
94
  0
LINE
  8
0
 10
-164
 20
-1066
 30
93
 11
-111
 21
-1027
 31
93
  0
LINE
  8
0
 10
-218
 20
-1107
 30
93
 11
-164
 21
-1066
 31
93
  0
LINE
  8
0
 10
-270
 20
-1146
 30
94
 11
-218
 21
-1107
 31
93
  0
LINE
  8
0
 10
-321
 20
-1184
 30
93
 11
-270
 21
-1146
 31
94
  0
LINE
  8
0
 10
-370
 20
-1221
 30
93
 11
-321
 21
-1184
 31
93
  0
LINE
  8
0
 10
-429
 20
-1265
 30
93
 11
-370
 21
-1221
 31
93
  0
LINE
  8
0
 10
-485
 20
-1307
 30
94
 11
-429
 21
-1265
 31
93
  0
LINE
  8
0
 10
-539
 20
-1348
 30
93
 11
-485
 21
-1307
 31
94
  0
LINE
  8
0
 10
-591
 20
-1386
 30
93
 11
-539
 21
-1348
 31
93
  0
LINE
  8
0
 10
-649
 20
-1430
 30
93
 11
-591
 21
-1386
 31
93
  0
LINE
  8
0
 10
-706
 20
-1472
 30
94
 11
-649
 21
-1430
 31
93
  0
LINE
  8
0
 10
-764
 20
-1516
 30
94
 11
-706
 21
-1472
 31
94
  0
LINE
  8
0
 10
-815
 20
-1554
 30
93
 11
-764
 21
-1516
 31
94
  0
LINE
  8
0
 10
-855
 20
-1584
 30
93
 11
-815
 21
-1554
 31
93
  0
LINE
  8
0
 10
-892
 20
-1612
 30
94
 11
-855
 21
-1584
 31
93
  0
LINE
  8
0
 10
-930
 20
-1640
 30
95
 11
-892
 21
-1612
 31
94
  0
LINE
  8
0
 10
-969
 20
-1670
 30
93
 11
-930
 21
-1640
 31
95
  0
LINE
  8
0
 10
-968
 20
-1669
 30
145
 11
-969
 21
-1670
 31
93
  0
LINE
  8
0
 10
-892
 20
-1612
 30
205
 11
-968
 21
-1669
 31
145
  0
LINE
  8
0
 10
-815
 20
-1554
 30
253
 11
-892
 21
-1612
 31
205
  0
LINE
  8
0
 10
-705
 20
-1472
 30
312
 11
-815
 21
-1554
 31
253
  0
LINE
  8
0
 10
-590
 20
-1386
 30
355
 11
-705
 21
-1472
 31
312
  0
LINE
  8
0
 10
-485
 20
-1307
 30
372
 11
-590
 21
-1386
 31
355
  0
LINE
  8
0
 10
-370
 20
-1221
 30
372
 11
-485
 21
-1307
 31
372
  0
LINE
  8
0
 10
-270
 20
-1145
 30
354
 11
-370
 21
-1221
 31
372
  0
LINE
  8
0
 10
-164
 20
-1066
 30
313
 11
-270
 21
-1145
 31
354
  0
LINE
  8
0
 10
-59
 20
-987
 30
253
 11
-164
 21
-1066
 31
313
  0
LINE
  8
0
 10
7
 20
-937
 30
205
 11
-59
 21
-987
 31
253
  0
LINE
  8
0
 10
74
 20
-887
 30
145
 11
7
 21
-937
 31
205
  0
LINE
  8
0
 10
114
 20
-1027
 30
143
 11
113
 21
-1028
 31
93
  0
LINE
  8
0
 10
46
 20
-1077
 30
144
 11
47
 21
-1077
 31
94
  0
LINE
  8
0
 10
-37
 20
-1141
 30
144
 11
-38
 21
-1141
 31
93
  0
LINE
  8
0
 10
-144
 20
-1221
 30
145
 11
-144
 21
-1221
 31
93
  0
LINE
  8
0
 10
-247
 20
-1298
 30
144
 11
-247
 21
-1298
 31
93
  0
LINE
  8
0
 10
-355
 20
-1379
 30
145
 11
-355
 21
-1379
 31
93
  0
LINE
  8
0
 10
-465
 20
-1461
 30
144
 11
-466
 21
-1462
 31
93
  0
LINE
  8
0
 10
-575
 20
-1544
 30
144
 11
-575
 21
-1544
 31
93
  0
LINE
  8
0
 10
-690
 20
-1630
 30
144
 11
-690
 21
-1630
 31
93
  0
LINE
  8
0
 10
-781
 20
-1698
 30
145
 11
-781
 21
-1699
 31
145
  0
LINE
  8
0
 10
-856
 20
-1755
 30
144
 11
-856
 21
-1755
 31
94
  0
LINE
  8
0
 10
-818
 20
-1726
 30
204
 11
-818
 21
-1726
 31
93
  0
LINE
  8
0
 10
-741
 20
-1669
 30
252
 11
-741
 21
-1669
 31
93
  0
LINE
  8
0
 10
-632
 20
-1586
 30
312
 11
-632
 21
-1587
 31
93
  0
LINE
  8
0
 10
-516
 20
-1500
 30
354
 11
-517
 21
-1500
 31
93
  0
LINE
  8
0
 10
-411
 20
-1421
 30
372
 11
-411
 21
-1421
 31
93
  0
LINE
  8
0
 10
-296
 20
-1335
 30
372
 11
-297
 21
-1335
 31
93
  0
LINE
  8
0
 10
-196
 20
-1260
 30
354
 11
-196
 21
-1260
 31
93
  0
LINE
  8
0
 10
-90
 20
-1181
 30
312
 11
-91
 21
-1181
 31
93
  0
LINE
  8
0
 10
14
 20
-1102
 30
252
 11
14
 21
-1102
 31
93
  0
LINE
  8
0
 10
81
 20
-1051
 30
205
 11
80
 21
-1052
 31
93
  0
LINE
  8
0
 10
-856
 20
-1755
 30
144
 11
-895
 21
-1784
 31
93
  0
LINE
  8
0
 10
-818
 20
-1726
 30
93
 11
-856
 21
-1755
 31
144
  0
LINE
  8
0
 10
-781
 20
-1698
 30
145
 11
-818
 21
-1726
 31
93
  0
LINE
  8
0
 10
-741
 20
-1669
 30
93
 11
-781
 21
-1698
 31
145
  0
LINE
  8
0
 10
-690
 20
-1630
 30
144
 11
-741
 21
-1669
 31
93
  0
LINE
  8
0
 10
-632
 20
-1587
 30
93
 11
-690
 21
-1630
 31
144
  0
LINE
  8
0
 10
-575
 20
-1544
 30
144
 11
-632
 21
-1587
 31
93
  0
LINE
  8
0
 10
-517
 20
-1500
 30
93
 11
-575
 21
-1544
 31
144
  0
LINE
  8
0
 10
-465
 20
-1461
 30
144
 11
-517
 21
-1500
 31
93
  0
LINE
  8
0
 10
-411
 20
-1421
 30
93
 11
-465
 21
-1461
 31
144
  0
LINE
  8
0
 10
-355
 20
-1379
 30
145
 11
-411
 21
-1421
 31
93
  0
LINE
  8
0
 10
-297
 20
-1335
 30
93
 11
-355
 21
-1379
 31
145
  0
LINE
  8
0
 10
-247
 20
-1298
 30
144
 11
-297
 21
-1335
 31
93
  0
LINE
  8
0
 10
-196
 20
-1260
 30
93
 11
-247
 21
-1298
 31
144
  0
LINE
  8
0
 10
-144
 20
-1221
 30
145
 11
-196
 21
-1260
 31
93
  0
LINE
  8
0
 10
-91
 20
-1181
 30
93
 11
-144
 21
-1221
 31
145
  0
LINE
  8
0
 10
-37
 20
-1141
 30
144
 11
-91
 21
-1181
 31
93
  0
LINE
  8
0
 10
14
 20
-1102
 30
93
 11
-37
 21
-1141
 31
144
  0
LINE
  8
0
 10
46
 20
-1077
 30
144
 11
14
 21
-1102
 31
93
  0
LINE
  8
0
 10
80
 20
-1052
 30
93
 11
46
 21
-1077
 31
144
  0
LINE
  8
0
 10
114
 20
-1027
 30
143
 11
80
 21
-1052
 31
93
  0
LINE
  8
0
 10
148
 20
-1001
 30
93
 11
114
 21
-1027
 31
143
  0
LINE
  8
0
 10
148
 20
-1001
 30
144
 11
148
 21
-1001
 31
93
  0
LINE
  8
0
 10
113
 20
-1028
 30
93
 11
148
 21
-1001
 31
93
  0
LINE
  8
0
 10
80
 20
-1052
 30
93
 11
113
 21
-1028
 31
93
  0
LINE
  8
0
 10
47
 20
-1077
 30
94
 11
80
 21
-1052
 31
93
  0
LINE
  8
0
 10
14
 20
-1102
 30
93
 11
47
 21
-1077
 31
94
  0
LINE
  8
0
 10
-38
 20
-1141
 30
93
 11
14
 21
-1102
 31
93
  0
LINE
  8
0
 10
-91
 20
-1181
 30
93
 11
-38
 21
-1141
 31
93
  0
LINE
  8
0
 10
-144
 20
-1221
 30
93
 11
-91
 21
-1181
 31
93
  0
LINE
  8
0
 10
-196
 20
-1260
 30
93
 11
-144
 21
-1221
 31
93
  0
LINE
  8
0
 10
-247
 20
-1298
 30
93
 11
-196
 21
-1260
 31
93
  0
LINE
  8
0
 10
-297
 20
-1335
 30
93
 11
-247
 21
-1298
 31
93
  0
LINE
  8
0
 10
-355
 20
-1379
 30
93
 11
-297
 21
-1335
 31
93
  0
LINE
  8
0
 10
-411
 20
-1421
 30
93
 11
-355
 21
-1379
 31
93
  0
LINE
  8
0
 10
-466
 20
-1462
 30
93
 11
-411
 21
-1421
 31
93
  0
LINE
  8
0
 10
-517
 20
-1500
 30
93
 11
-466
 21
-1462
 31
93
  0
LINE
  8
0
 10
-575
 20
-1544
 30
93
 11
-517
 21
-1500
 31
93
  0
LINE
  8
0
 10
-632
 20
-1587
 30
93
 11
-575
 21
-1544
 31
93
  0
LINE
  8
0
 10
-690
 20
-1630
 30
93
 11
-632
 21
-1587
 31
93
  0
LINE
  8
0
 10
-741
 20
-1669
 30
93
 11
-690
 21
-1630
 31
93
  0
LINE
  8
0
 10
-818
 20
-1726
 30
93
 11
-741
 21
-1669
 31
93
  0
LINE
  8
0
 10
-856
 20
-1755
 30
94
 11
-818
 21
-1726
 31
93
  0
LINE
  8
0
 10
-895
 20
-1784
 30
93
 11
-856
 21
-1755
 31
94
  0
LINE
  8
0
 10
-895
 20
-1784
 30
145
 11
-895
 21
-1784
 31
93
  0
LINE
  8
0
 10
-818
 20
-1726
 30
204
 11
-895
 21
-1784
 31
145
  0
LINE
  8
0
 10
-741
 20
-1669
 30
252
 11
-818
 21
-1726
 31
204
  0
LINE
  8
0
 10
-632
 20
-1586
 30
312
 11
-741
 21
-1669
 31
252
  0
LINE
  8
0
 10
-516
 20
-1500
 30
354
 11
-632
 21
-1586
 31
312
  0
LINE
  8
0
 10
-411
 20
-1421
 30
372
 11
-516
 21
-1500
 31
354
  0
LINE
  8
0
 10
-296
 20
-1335
 30
372
 11
-411
 21
-1421
 31
372
  0
LINE
  8
0
 10
-196
 20
-1260
 30
354
 11
-296
 21
-1335
 31
372
  0
LINE
  8
0
 10
-90
 20
-1181
 30
312
 11
-196
 21
-1260
 31
354
  0
LINE
  8
0
 10
14
 20
-1102
 30
252
 11
-90
 21
-1181
 31
312
  0
LINE
  8
0
 10
81
 20
-1051
 30
205
 11
14
 21
-1102
 31
252
  0
LINE
  8
0
 10
148
 20
-1001
 30
144
 11
81
 21
-1051
 31
205
  0
ENDSEC
  0
EOF
